# xmcd
#
# Track frame offsets:
#	150
#	13787
#	26667
#
# Disc length: 575 seconds
#
# Revision: 0
# Processed by: cddbd v1.5.2PL0 Copyright (c) Steve Scherf et al.
# Submitted via: audiograbber 1.83.01
#
DISCID=1b023d03
DTITLE=Various Artist - CDX 21
DYEAR=1991
DGENRE=Country
TTITLE0=Highway 101 - Baby I'm Missing You
TTITLE1=Cleve Francis - Love Light
TTITLE2=Billy Dean - Only The Wind
EXTD=
EXTT0=
EXTT1=
EXTT2=
PLAYORDER=
